<?xml version="1.0" encoding="UTF-8"?>
<svg xmlns="http://www.w3.org/2000/svg" viewBox="0 0 512 512" width="512" height="512" shape-rendering="geometricPrecision" role="img" aria-label="grelmicro favicon">
  <title>grelmicro favicon</title>
  <rect width="512" height="512" rx="113" fill="#0F0F10" shape-rendering="crispEdges"/>
  <path d="M341 -252Q220 -252 140.5 -196.0Q61 -140 47 -46H218Q228 -81 259.5 -100.5Q291 -120 337 -120Q400 -120 437.0 -83.0Q474 -46 474 18V98H470Q418 0 303 0Q229 0 172.0 39.0Q115 78 83.0 146.5Q51 215 51 306Q51 397 83.0 465.5Q115 534 172.0 573.0Q229 612 303 612Q421 612 470 514H474V600H631V16Q631 -109 553.5 -180.5Q476 -252 341 -252ZM346 144Q403 144 436.0 182.0Q469 220 469 286V328Q469 392 435.5 430.0Q402 468 346 468Q285 468 249.0 424.0Q213 380 213 306Q213 232 249.0 188.0Q285 144 346 144Z" fill="#FAFAF7" transform="translate(131.901 363.520) scale(0.365714 -0.365714)"/>
  <rect x="305.250" y="56.320" width="57.417" height="57.417" fill="#E30613"/>
</svg>
