<?xml version="1.0" encoding="UTF-8"?>
<svg xmlns="http://www.w3.org/2000/svg" viewBox="0 0 516 112" width="516" height="112" shape-rendering="geometricPrecision" role="img" aria-label="grelmicro">
  <title>grelmicro</title>
  <rect width="516" height="112" rx="12" fill="#FAFAF7"/>
  <path d="M341 -252Q220 -252 140.5 -196.0Q61 -140 47 -46H218Q228 -81 259.5 -100.5Q291 -120 337 -120Q400 -120 437.0 -83.0Q474 -46 474 18V98H470Q418 0 303 0Q229 0 172.0 39.0Q115 78 83.0 146.5Q51 215 51 306Q51 397 83.0 465.5Q115 534 172.0 573.0Q229 612 303 612Q421 612 470 514H474V600H631V16Q631 -109 553.5 -180.5Q476 -252 341 -252ZM346 144Q403 144 436.0 182.0Q469 220 469 286V328Q469 392 435.5 430.0Q402 468 346 468Q285 468 249.0 424.0Q213 380 213 306Q213 232 249.0 188.0Q285 144 346 144Z" fill="#0F0F10" transform="translate(12.000 83.000) scale(0.091667 -0.091667)"/>
  <path d="M84 0V600H240V501H244Q264 549 304.0 578.0Q344 607 400 607H450V463H393Q316 463 281.0 419.0Q246 375 246 303V0Z" fill="#0F0F10" transform="translate(77.267 83.000) scale(0.091667 -0.091667)"/>
  <path d="M336 -12Q250 -12 184.0 26.5Q118 65 80.5 135.5Q43 206 43 302Q43 397 79.5 466.5Q116 536 181.0 574.0Q246 612 330 612Q409 612 471.5 577.0Q534 542 570.5 475.5Q607 409 607 313V257H202Q210 191 246.0 155.5Q282 120 335 120Q377 120 404.0 139.5Q431 159 441 193H607Q589 97 514.0 42.5Q439 -12 336 -12ZM205 367H449Q441 423 409.5 452.0Q378 481 331 481Q284 481 250.5 451.5Q217 422 205 367Z" fill="#0F0F10" transform="translate(121.450 83.000) scale(0.091667 -0.091667)"/>
  <path d="M76 0V840H238V0Z" fill="#0F0F10" transform="translate(181.583 83.000) scale(0.091667 -0.091667)"/>
  <path d="M75 0V600H229V512H233Q258 561 301.5 586.0Q345 611 402 611Q459 611 504.0 585.0Q549 559 577 510H580Q612 559 660.0 585.0Q708 611 768 611Q838 611 890.0 579.0Q942 547 971.5 491.0Q1001 435 1001 361V0H839V329Q839 392 809.5 427.5Q780 463 729 463Q678 463 648.5 427.5Q619 392 619 329V0H457V329Q457 392 427.5 427.5Q398 463 346 463Q294 463 265.5 428.0Q237 393 237 329V0Z" fill="#E30613" transform="translate(210.917 83.000) scale(0.091667 -0.091667)"/>
  <path d="M76 0V600H238V0Z" fill="#E30613" transform="translate(309.733 83.000) scale(0.091667 -0.091667)"/>
  <path d="M335 -12Q251 -12 185.0 26.5Q119 65 81.0 135.0Q43 205 43 300Q43 396 81.0 466.0Q119 536 185.0 574.0Q251 612 335 612Q440 612 515.5 554.0Q591 496 609 387H443Q432 427 403.0 447.5Q374 468 335 468Q277 468 241.0 422.5Q205 377 205 300Q205 223 241.0 177.5Q277 132 335 132Q377 132 407.0 153.5Q437 175 448 222H611Q601 145 562.5 93.0Q524 41 465.0 14.5Q406 -12 335 -12Z" fill="#E30613" transform="translate(339.067 83.000) scale(0.091667 -0.091667)"/>
  <path d="M84 0V600H240V501H244Q264 549 304.0 578.0Q344 607 400 607H450V463H393Q316 463 281.0 419.0Q246 375 246 303V0Z" fill="#E30613" transform="translate(397.183 83.000) scale(0.091667 -0.091667)"/>
  <path d="M340 -12Q254 -12 187.0 26.5Q120 65 81.5 135.0Q43 205 43 300Q43 396 81.5 466.0Q120 536 187.0 574.0Q254 612 340 612Q427 612 494.0 574.0Q561 536 599.0 466.0Q637 396 637 300Q637 205 599.0 134.5Q561 64 494.0 26.0Q427 -12 340 -12ZM340 132Q401 132 438.0 177.5Q475 223 475 300Q475 377 438.0 422.5Q401 468 340 468Q280 468 242.5 422.5Q205 377 205 300Q205 223 242.5 177.5Q280 132 340 132Z" fill="#E30613" transform="translate(441.367 83.000) scale(0.091667 -0.091667)"/>
  <rect x="316.732" y="6.000" width="14.785" height="14.785" fill="#E30613" shape-rendering="crispEdges"/>
  <rect x="55.253" y="6.000" width="14.785" height="14.785" fill="#E30613" shape-rendering="crispEdges"/>
</svg>
