<?xml version="1.0" encoding="UTF-8"?>
<svg xmlns="http://www.w3.org/2000/svg" viewBox="0 0 1200 630" width="1200" height="630" shape-rendering="geometricPrecision" role="img" aria-label="grelmicro: Python primitives">
  <title>grelmicro: Python primitives</title>
  <rect width="1200" height="630" fill="#FAFAF7"/>
  <rect x="60" y="135.0" width="360" height="360" rx="78" fill="#0F0F10"/>
  <path d="M354 -252Q219 -252 134.5 -197.5Q50 -143 34 -46H210Q234 -120 349 -120Q427 -120 468.5 -84.5Q510 -49 510 18V98H505Q449 0 317 0Q232 0 169.5 37.5Q107 75 72.5 143.5Q38 212 38 306Q38 446 115.5 529.0Q193 612 328 612Q403 612 457.0 583.5Q511 555 543 502H585V600H753V436H671V16Q671 -112 588.5 -182.0Q506 -252 354 -252ZM358 144Q426 144 465.5 182.0Q505 220 505 286V328Q505 393 465.5 430.5Q426 468 358 468Q285 468 244.5 425.0Q204 382 204 305Q204 228 244.5 186.0Q285 144 358 144Z" fill="#FAFAF7" transform="translate(168.000 369.277) scale(0.184615 -0.184615)"/>
  <rect x="276.619" y="214.200" width="29.777" height="29.777" fill="#E30613" shape-rendering="crispEdges"/>
  <path d="M354 -252Q219 -252 134.5 -197.5Q50 -143 34 -46H210Q234 -120 349 -120Q427 -120 468.5 -84.5Q510 -49 510 18V98H505Q449 0 317 0Q232 0 169.5 37.5Q107 75 72.5 143.5Q38 212 38 306Q38 446 115.5 529.0Q193 612 328 612Q403 612 457.0 583.5Q511 555 543 502H585V600H753V436H671V16Q671 -112 588.5 -182.0Q506 -252 354 -252ZM358 144Q426 144 465.5 182.0Q505 220 505 286V328Q505 393 465.5 430.5Q426 468 358 468Q285 468 244.5 425.0Q204 382 204 305Q204 228 244.5 186.0Q285 144 358 144Z" fill="#0F0F10" transform="translate(470.000 346.108) scale(0.117833 -0.117833)"/>
  <path d="M118 0V436H36V600H204V482H246Q269 544 321.0 575.5Q373 607 439 607H490V463H432Q354 463 317.5 419.0Q281 375 281 303V0Z" fill="#0F0F10" transform="translate(562.617 346.108) scale(0.117833 -0.117833)"/>
  <path d="M352 -12Q254 -12 182.5 26.5Q111 65 72.0 135.5Q33 206 33 302Q33 397 71.0 466.5Q109 536 179.5 574.0Q250 612 346 612Q487 612 567.0 532.0Q647 452 647 313V257H192Q202 190 242.5 155.0Q283 120 351 120Q453 120 479 193H645Q625 97 547.5 42.5Q470 -12 352 -12ZM196 367H488Q471 481 347 481Q223 481 196 367Z" fill="#0F0F10" transform="translate(623.890 346.108) scale(0.117833 -0.117833)"/>
  <path d="M69 0V840H235V0Z" fill="#0F0F10" transform="translate(704.724 346.108) scale(0.117833 -0.117833)"/>
  <path d="M109 0V436H27V600H195V502H239Q271 554 322.0 582.5Q373 611 448 611Q589 611 654 510H658Q727 611 863 611Q980 611 1047.5 543.5Q1115 476 1115 361V0H949V329Q949 463 822 463Q695 463 695 329V0H529V329Q529 463 400 463Q275 463 275 329V0Z" fill="#E30613" transform="translate(741.252 346.108) scale(0.117833 -0.117833)"/>
  <path d="M69 0V600H235V0Z" fill="#E30613" transform="translate(880.531 346.108) scale(0.117833 -0.117833)"/>
  <path d="M347 -12Q253 -12 182.5 26.5Q112 65 72.5 135.0Q33 205 33 300Q33 395 72.0 465.0Q111 535 182.0 573.5Q253 612 347 612Q466 612 543.0 552.0Q620 492 640 387H473Q446 468 347 468Q280 468 239.5 424.0Q199 380 199 300Q199 220 240.0 176.0Q281 132 347 132Q453 132 476 222H643Q625 112 548.0 50.0Q471 -12 347 -12Z" fill="#E30613" transform="translate(917.059 346.108) scale(0.117833 -0.117833)"/>
  <path d="M118 0V436H36V600H204V482H246Q269 544 321.0 575.5Q373 607 439 607H490V463H432Q354 463 317.5 419.0Q281 375 281 303V0Z" fill="#E30613" transform="translate(994.358 346.108) scale(0.117833 -0.117833)"/>
  <path d="M356 -12Q258 -12 185.5 26.5Q113 65 73.0 135.0Q33 205 33 301Q33 396 73.0 466.0Q113 536 185.5 574.0Q258 612 357 612Q455 612 527.0 574.0Q599 536 638.0 466.0Q677 396 677 300Q677 205 637.5 134.5Q598 64 526.0 26.0Q454 -12 356 -12ZM356 132Q431 132 471.0 177.5Q511 223 511 301Q511 379 471.0 423.5Q431 468 356 468Q280 468 239.5 423.0Q199 378 199 301Q199 223 239.5 177.5Q280 132 356 132Z" fill="#E30613" transform="translate(1055.631 346.108) scale(0.117833 -0.117833)"/>
  <rect x="888.939" y="247.128" width="19.006" height="19.006" fill="#E30613" shape-rendering="crispEdges"/>
  <rect x="539.328" y="247.128" width="19.006" height="19.006" fill="#E30613" shape-rendering="crispEdges"/>
  <text x="470.000" y="409.738" font-family="-apple-system, BlinkMacSystemFont, Segoe UI, Roboto, sans-serif" font-size="26" fill="#0F0F10" opacity="0.6">Async-first toolkit. Microservice patterns inside.</text>
</svg>
